<?xml version="1.0" standalone="no"?>
<!DOCTYPE svg PUBLIC "-//W3C//DTD SVG 20010904//EN"
 "http://www.w3.org/TR/2001/REC-SVG-20010904/DTD/svg10.dtd">
<svg version="1.0" xmlns="http://www.w3.org/2000/svg"
 width="700.000000pt" height="700.000000pt" viewBox="0 0 700.000000 700.000000"
 preserveAspectRatio="xMidYMid meet">
<metadata>
Created by potrace 1.14, written by Peter Selinger 2001-2017
</metadata>
<g transform="translate(0.000000,700.000000) scale(0.100000,-0.100000)"
fill="#000000" stroke="none">
<path d="M3213 6870 c-116 -20 -161 -39 -255 -110 -87 -66 -276 -253 -332
-330 -69 -93 -81 -135 -80 -275 0 -66 4 -147 9 -180 4 -33 8 -78 7 -100 -1
-78 -51 -206 -106 -271 -68 -83 -129 -166 -148 -200 -16 -32 -35 -48 -77 -69
-106 -52 -209 -146 -273 -250 -100 -164 -112 -436 -27 -622 35 -74 160 -248
219 -303 27 -26 163 -186 229 -270 45 -58 87 -112 94 -120 57 -71 147 -236
165 -303 30 -109 -25 -306 -107 -383 -48 -46 -79 -57 -150 -52 -184 13 -253
133 -337 583 -19 101 -53 226 -66 243 -6 6 -7 12 -4 12 12 0 -74 154 -125 224
-54 73 -89 99 -164 121 -62 18 -185 25 -240 13 -104 -23 -177 -74 -217 -152
-46 -91 -100 -314 -142 -596 -32 -209 -28 -652 8 -990 35 -321 261 -959 451
-1274 19 -32 35 -60 35 -63 0 -7 146 -226 178 -268 67 -85 89 -111 137 -164
171 -186 331 -308 535 -405 137 -64 354 -137 480 -159 94 -17 151 -27 190 -32
25 -3 56 -8 70 -10 136 -21 485 -21 650 0 313 40 604 168 880 387 269 213 444
461 611 863 32 77 74 248 86 347 10 79 9 414 0 488 -4 30 -10 78 -13 105 -4
28 -8 59 -10 70 -2 11 -9 47 -15 80 -39 223 -125 490 -225 701 -21 43 -38 81
-39 84 -1 3 -26 56 -57 118 -55 111 -55 113 -34 124 11 6 23 14 26 17 3 3 48
35 101 69 l97 63 108 -17 c66 -10 180 -18 289 -19 263 -4 398 27 532 122 117
82 200 211 224 349 28 164 -24 434 -113 582 -78 127 -331 401 -628 676 -165
154 -451 439 -445 444 3 3 49 6 102 6 l96 1 28 35 c37 46 45 110 18 144 -26
33 -105 73 -168 84 -46 8 -57 7 -109 -18 -31 -15 -73 -40 -92 -54 l-35 -27
-80 88 c-114 126 -366 375 -460 453 -86 72 -218 162 -300 203 -98 49 -396 156
-475 171 -14 3 -50 10 -80 16 -93 20 -312 20 -427 0z m370 -2754 c260 -66 458
-246 496 -448 24 -135 -30 -273 -132 -332 -82 -48 -283 -71 -407 -47 -188 37
-408 188 -479 330 -58 113 -80 276 -47 339 22 42 80 97 135 128 116 65 258 74
434 30z m-1651 -1772 c91 -31 196 -143 254 -269 55 -120 27 -275 -66 -358
-108 -97 -245 -85 -373 33 -98 90 -148 205 -143 332 6 200 157 321 328 262z
m2108 -924 c133 -52 269 -154 313 -235 26 -49 29 -164 4 -210 -27 -53 -100
-106 -162 -119 -16 -3 -41 -9 -55 -12 -82 -17 -200 5 -266 50 -130 88 -195
299 -130 422 32 61 44 76 79 99 57 37 129 39 217 5z m-1082 -53 c112 -40 227
-136 269 -224 19 -42 24 -66 22 -115 -3 -83 -24 -131 -79 -188 -125 -128 -335
-114 -479 31 -104 104 -143 239 -102 353 25 71 57 107 125 142 45 22 60 25
126 21 41 -2 94 -11 118 -20z"/>
</g>
</svg>
